<?xml version="1.0" standalone="no"?>
<!DOCTYPE svg PUBLIC "-//W3C//DTD SVG 20010904//EN"
 "http://www.w3.org/TR/2001/REC-SVG-20010904/DTD/svg10.dtd">
<svg version="1.0" xmlns="http://www.w3.org/2000/svg"
 width="512.000000pt" height="512.000000pt" viewBox="0 0 512.000000 512.000000"
 preserveAspectRatio="xMidYMid meet">
<metadata>
Created by potrace 1.14, written by Peter Selinger 2001-2017
</metadata>
<g transform="translate(0.000000,512.000000) scale(0.100000,-0.100000)"
fill="#000000" stroke="none">
<path d="M3058 4249 c-10 -10 -20 -21 -21 -26 -2 -16 -32 -63 -40 -63 -5 0 -5
-4 -2 -10 3 -5 1 -10 -4 -10 -6 0 -11 -6 -11 -14 0 -8 -4 -16 -8 -18 -4 -1
-30 -39 -57 -83 -27 -44 -53 -81 -57 -83 -5 -2 -8 -10 -8 -18 0 -8 -4 -14 -10
-14 -5 0 -10 -9 -10 -19 0 -10 -7 -21 -15 -25 -8 -3 -15 -10 -15 -16 0 -6 -11
-26 -25 -44 -14 -18 -25 -38 -25 -44 0 -7 -4 -12 -9 -12 -5 0 -14 -13 -21 -29
-6 -16 -18 -32 -27 -35 -8 -3 -12 -10 -9 -15 3 -5 -1 -14 -9 -21 -16 -14 -18
-12 -100 69 -30 30 -55 50 -56 45 0 -5 -4 1 -9 14 -5 12 -16 22 -25 22 -8 0
-15 7 -15 15 0 8 -3 15 -8 15 -4 0 -38 30 -76 66 l-68 66 -86 5 c-48 2 -131 5
-185 7 -53 2 -100 6 -103 9 -3 3 -17 2 -30 -3 -13 -5 -24 -6 -24 -1 0 11 -34
10 -42 -2 -4 -7 -11 -7 -20 -1 -7 6 -49 12 -93 13 -94 3 -166 7 -180 11 -5 1
-14 1 -20 0 -5 -1 -35 -1 -65 0 -30 1 -86 2 -125 1 -38 0 -74 -1 -80 -1 -5 0
-172 1 -370 1 -334 1 -387 -1 -455 -16 -39 -9 -93 -17 -117 -18 -13 -1 -23 -5
-23 -11 0 -5 -2 -7 -5 -4 -4 3 -23 2 -43 -3 -20 -4 -59 -11 -87 -15 -27 -3
-54 -9 -60 -12 -5 -4 -21 -7 -35 -8 -55 -3 -60 -4 -60 -11 0 -5 25 -19 55 -33
30 -14 55 -29 55 -34 0 -5 2 -7 5 -4 3 3 41 -13 83 -36 43 -22 104 -54 137
-71 33 -16 63 -34 66 -38 3 -5 8 -8 10 -7 6 2 43 -13 49 -20 3 -3 49 -28 103
-54 53 -27 97 -54 97 -59 0 -6 3 -7 6 -4 6 6 79 -28 94 -43 3 -3 12 -6 20 -8
8 -2 17 -8 18 -13 2 -5 8 -7 13 -3 5 3 9 0 9 -5 0 -6 6 -11 14 -11 16 0 73
-29 94 -47 7 -7 18 -13 23 -13 16 0 24 -3 37 -17 8 -7 18 -11 23 -8 5 4 9 2 9
-3 0 -6 20 -18 44 -28 24 -10 42 -22 40 -26 -3 -5 2 -8 10 -8 18 0 98 -40 107
-53 3 -5 8 -8 10 -8 15 2 49 -13 49 -22 0 -6 3 -7 6 -4 4 4 19 -2 34 -13 16
-11 33 -20 39 -20 6 0 11 -5 11 -12 0 -6 3 -9 6 -5 6 6 102 -42 132 -66 6 -5
12 -6 12 -3 0 4 12 -1 28 -11 32 -22 88 -48 125 -58 4 -2 8 -3 10 -4 1 -2 11
-4 22 -6 11 -2 56 -16 100 -30 44 -14 88 -25 97 -25 10 0 18 -4 18 -8 0 -4 11
-9 26 -10 14 -1 34 -7 46 -13 11 -6 35 -13 52 -16 17 -3 37 -10 44 -15 6 -6
12 -8 12 -5 0 4 18 0 40 -8 22 -8 41 -14 43 -14 1 0 9 -2 17 -5 47 -15 90 -27
110 -31 12 -2 25 -7 28 -10 11 -11 10 -35 -1 -35 -7 0 -5 -5 3 -10 12 -7 12
-10 1 -10 -9 0 -11 -8 -7 -25 4 -15 2 -25 -4 -25 -6 0 -10 -6 -8 -12 2 -11 -8
-83 -18 -123 -1 -5 -4 -26 -8 -45 -7 -44 -14 -82 -22 -118 -3 -15 -7 -38 -9
-52 -2 -14 -7 -43 -11 -65 -3 -22 -6 -44 -6 -50 3 -58 6 -76 13 -81 5 -2 6
-11 2 -19 -3 -9 0 -22 7 -30 10 -12 10 -15 -1 -15 -9 0 -10 -3 -4 -8 13 -9 16
-26 16 -89 0 -35 8 -69 24 -102 13 -27 27 -61 31 -75 3 -14 11 -26 16 -26 6 0
8 -7 4 -15 -3 -8 -1 -15 4 -15 5 0 15 -18 21 -40 7 -22 16 -40 22 -40 5 0 7
-6 4 -14 -3 -8 1 -20 9 -27 8 -6 12 -14 10 -16 -3 -3 4 -20 15 -39 10 -19 19
-41 19 -48 0 -7 7 -19 15 -26 9 -7 13 -15 11 -18 -9 -9 24 -57 67 -95 23 -21
80 -74 126 -117 46 -44 86 -80 88 -80 2 0 23 -19 47 -43 59 -57 166 -156 171
-157 2 -1 36 -33 74 -71 39 -38 71 -67 71 -63 0 3 9 -4 20 -17 16 -20 19 -21
20 -7 0 9 -5 20 -10 23 -6 4 -8 10 -5 15 3 5 1 11 -5 15 -5 3 -10 15 -10 26 0
10 -4 28 -10 39 -24 48 -28 58 -36 90 -4 19 -7 38 -6 43 1 4 -2 7 -6 7 -5 0
-16 28 -27 63 -10 34 -21 67 -25 72 -3 6 -13 30 -20 55 -7 25 -18 50 -23 57
-5 7 -6 16 -3 22 3 5 2 11 -4 13 -6 2 -11 17 -13 35 -1 17 -5 29 -9 26 -5 -2
-9 1 -9 6 -1 6 -3 14 -4 19 -1 4 -6 22 -10 40 -4 17 -12 32 -17 32 -5 0 -7 4
-3 10 3 5 1 17 -4 27 -18 34 -59 161 -53 167 3 3 1 6 -5 6 -6 0 -13 12 -16 28
-3 15 -11 41 -18 57 -7 17 -14 39 -16 49 -2 11 -8 25 -13 31 -15 18 -19 77 -6
92 6 8 23 27 38 43 14 16 24 30 22 32 -2 2 10 19 26 36 16 18 27 32 24 32 -3
0 0 6 6 13 51 60 63 75 78 100 9 15 20 27 24 27 4 0 8 6 8 13 0 6 14 28 31 47
17 19 44 54 61 78 16 23 34 42 39 42 6 0 8 4 4 9 -3 6 1 13 9 18 8 4 14 10 14
13 0 3 9 27 22 55 12 27 23 54 24 60 1 5 8 20 14 33 7 12 10 22 7 22 -3 0 4
16 15 37 10 20 17 40 14 45 -3 4 0 8 5 8 6 0 10 3 9 8 -2 9 12 45 55 142 9 19
13 38 11 42 -3 4 0 8 7 8 7 0 9 3 6 7 -4 3 -2 11 3 18 5 6 12 29 16 51 3 21
10 44 15 50 5 6 6 13 3 16 -3 3 2 22 10 42 8 20 11 34 5 30 -8 -4 -8 -1 0 13
5 11 13 33 16 49 2 16 7 39 10 52 3 12 7 32 10 45 8 37 27 77 36 77 5 0 9 5 9
12 0 13 49 89 65 100 5 4 6 8 2 8 -5 0 2 15 15 32 31 43 46 69 54 91 3 9 10
17 14 17 5 0 10 6 12 13 2 7 28 54 58 104 45 74 60 91 80 91 14 1 59 4 100 8
41 4 89 7 105 8 17 0 33 5 37 11 5 6 8 6 8 -1 0 -8 16 -9 51 -3 28 5 54 8 58
7 3 0 8 1 11 2 3 1 34 3 70 4 36 1 71 5 77 9 6 4 14 3 18 -3 4 -6 12 -7 18 -3
13 8 32 10 137 18 74 5 177 13 265 20 33 3 94 8 135 11 133 9 140 10 150 20 5
5 -20 9 -68 9 -43 -1 -80 4 -84 10 -5 6 -8 5 -8 -4 0 -11 -3 -11 -15 -1 -11 9
-15 9 -15 1 0 -7 -5 -9 -11 -5 -18 11 -69 13 -69 2 0 -5 -6 -6 -12 -1 -15 9
-24 9 -206 16 -74 3 -136 8 -139 11 -3 2 -15 1 -28 -4 -13 -5 -26 -6 -30 -2
-3 4 -32 7 -63 8 -218 7 -262 10 -262 18 0 5 -6 3 -13 -3 -8 -6 -16 -9 -18 -6
-3 2 -32 6 -64 9 -64 4 -82 11 -160 55 -27 16 -58 30 -68 30 -10 1 -15 6 -12
11 3 6 -3 10 -14 10 -12 0 -21 5 -21 10 0 6 -9 10 -20 10 -10 0 -23 8 -29 18
-5 9 -11 16 -13 14 -2 -2 -16 2 -33 9 -20 8 -107 12 -258 13 -203 1 -231 0
-249 -15z"/>
<path d="M5055 4020 c-3 -6 1 -7 9 -4 18 7 21 14 7 14 -6 0 -13 -4 -16 -10z"/>
</g>
</svg>
